<svg width="20" height="20" viewBox="0 0 20 20" fill="none" xmlns="http://www.w3.org/2000/svg">
<g clip-path="url(#clip0_504_328)">
<path d="M15.4457 15.5548L16.624 16.7332L13.9574 19.3998C13.5708 19.785 13.0473 20.0013 12.5015 20.0013C11.9558 20.0013 11.4323 19.785 11.0457 19.3998L8.37903 16.7332L9.55737 15.5548L11.6665 17.6665V10.8332H13.3332V17.6665L15.4457 15.5548ZM14.8249 6.00732C14.453 4.41646 13.51 3.01751 12.1748 2.07607C10.8396 1.13464 9.20513 0.716273 7.5818 0.900401C5.95846 1.08453 4.45926 1.85833 3.36881 3.0749C2.27837 4.29147 1.6726 5.86609 1.66653 7.49982C1.66571 8.56516 1.92306 9.61483 2.41653 10.559C1.51747 11.0408 0.805199 11.8092 0.392881 12.7422C-0.0194357 13.6751 -0.108147 14.7191 0.140842 15.7083C0.389831 16.6974 0.962238 17.575 1.76712 18.2016C2.572 18.8281 3.56319 19.1678 4.5832 19.1665H8.45153L6.78487 17.4998H4.5832C3.87355 17.5019 3.1876 17.2446 2.65446 16.7762C2.12132 16.3079 1.77777 15.6608 1.68846 14.9568C1.59915 14.2528 1.77026 13.5404 2.16956 12.9537C2.56887 12.3671 3.16883 11.9466 3.85653 11.7715L5.05403 11.4623L4.3182 10.469C3.67748 9.61179 3.33188 8.57001 3.3332 7.49982C3.34409 6.23911 3.83085 5.02905 4.69599 4.11197C5.56113 3.19489 6.74079 2.63849 7.99873 2.5542C9.25666 2.46991 10.5 2.86395 11.4798 3.65741C12.4595 4.45087 13.1034 5.58517 13.2824 6.83316L13.3657 7.46482L13.9982 7.54816C14.8374 7.65946 15.6344 7.98241 16.3144 8.48663C16.9943 8.99086 17.5348 9.65977 17.885 10.4304C18.2352 11.2011 18.3836 12.0482 18.3163 12.892C18.2489 13.7358 17.9679 14.5487 17.4999 15.254L18.6915 16.4457C19.3495 15.5577 19.7756 14.5198 19.9314 13.4257C20.0872 12.3317 19.9678 11.216 19.5839 10.1797C19.2001 9.14346 18.5639 8.21924 17.7329 7.49071C16.902 6.76219 15.9025 6.25235 14.8249 6.00732Z" fill="white"/>
</g>
<defs>
<clipPath id="clip0_504_328">
<rect width="20" height="20" fill="white"/>
</clipPath>
</defs>
</svg>
