<svg width="16" height="16" viewBox="0 0 16 16" fill="none" xmlns="http://www.w3.org/2000/svg">
<g clip-path="url(#clip0_504_168)">
<path d="M8.00024 6.25801C8.96606 6.25811 9.74146 7.03436 9.74146 8.0002C9.74135 8.96595 8.96599 9.7413 8.00024 9.74141C7.0344 9.74141 6.25816 8.96601 6.25806 8.0002C6.25806 7.03429 7.03434 6.25801 8.00024 6.25801ZM8.00024 6.71699C7.29115 6.71699 6.71704 7.2911 6.71704 8.0002C6.71715 8.7092 7.29121 9.2834 8.00024 9.2834C8.70918 9.28329 9.28334 8.70914 9.28345 8.0002C9.28345 7.29117 8.70925 6.7171 8.00024 6.71699Z" fill="#6B7280" stroke="#6B7280" stroke-width="0.666667"/>
<path d="M8 3.18301C9.88299 3.18301 11.2857 3.70023 12.3887 4.46426C13.4973 5.23223 14.3194 6.26072 15.0225 7.30898V7.30996C15.2961 7.72044 15.3007 8.25229 15.0186 8.6957C14.3158 9.73037 13.4946 10.757 12.3877 11.5268C11.2843 12.294 9.88195 12.8168 8 12.8168C6.11805 12.8168 4.71565 12.294 3.6123 11.5268C2.50316 10.7554 1.68024 9.72663 0.976562 8.68984H0.977539C0.702243 8.27682 0.701227 7.72199 0.976562 7.30898C1.67971 6.26057 2.50257 5.23234 3.61133 4.46426C4.71427 3.70023 6.11701 3.18301 8 3.18301ZM8 3.64199C6.58937 3.64199 5.39046 3.92718 4.30469 4.57266C3.22351 5.21543 2.2781 6.20101 1.34961 7.56191L1.34766 7.56484C1.17301 7.82681 1.17301 8.17299 1.34766 8.43496L1.34961 8.43789C2.27812 9.79886 3.22348 10.7844 4.30469 11.4271C5.39048 12.0727 6.58933 12.3588 8 12.3588C9.41067 12.3588 10.6095 12.0727 11.6953 11.4271C12.7765 10.7844 13.7219 9.79886 14.6504 8.43789L14.6631 8.41934L14.6729 8.39883C14.7947 8.155 14.7948 7.84479 14.6729 7.60098L14.6631 7.58047L14.6504 7.56191L14.3008 7.06973C13.483 5.96051 12.6414 5.13512 11.6953 4.57266C10.6095 3.92718 9.41063 3.64199 8 3.64199Z" fill="#6B7280" stroke="#6B7280" stroke-width="0.666667"/>
</g>
<defs>
<clipPath id="clip0_504_168">
<rect width="16" height="16" fill="white"/>
</clipPath>
</defs>
</svg>
